<svg width="433" height="413" viewBox="0 0 433 413" fill="none" xmlns="http://www.w3.org/2000/svg">
<ellipse cx="216.5" cy="206.5" rx="216.5" ry="206.5" fill="#9BB1FF"/>
<path d="M103.447 254.832C106.092 255.429 108.183 256.752 109.719 258.8C111.297 260.805 112.087 263.109 112.087 265.712C112.087 269.552 110.764 272.56 108.119 274.736C105.473 276.912 101.761 278 96.9825 278H74.6465V232.88H96.2785C100.887 232.88 104.492 233.904 107.095 235.952C109.74 238 111.062 240.88 111.062 244.592C111.062 247.237 110.359 249.456 108.951 251.248C107.585 252.997 105.751 254.192 103.447 254.832ZM87.1905 250.8H93.5265C96.6838 250.8 98.2625 249.499 98.2625 246.896C98.2625 244.208 96.6838 242.864 93.5265 242.864H87.1905V250.8ZM94.4865 267.888C97.6438 267.888 99.2225 266.565 99.2225 263.92C99.2225 262.555 98.7958 261.509 97.9425 260.784C97.1318 260.059 95.9585 259.696 94.4225 259.696H87.1905V267.888H94.4865ZM154.32 242.096V278H141.712V272.88C140.645 274.501 139.173 275.824 137.296 276.848C135.419 277.829 133.264 278.32 130.832 278.32C126.651 278.32 123.344 276.955 120.912 274.224C118.523 271.451 117.328 267.696 117.328 262.96V242.096H129.808V261.36C129.808 263.408 130.341 265.029 131.408 266.224C132.517 267.376 133.968 267.952 135.76 267.952C137.595 267.952 139.045 267.376 140.112 266.224C141.179 265.029 141.712 263.408 141.712 261.36V242.096H154.32ZM167.795 238.768C165.576 238.768 163.784 238.171 162.419 236.976C161.096 235.739 160.435 234.203 160.435 232.368C160.435 230.491 161.096 228.933 162.419 227.696C163.784 226.459 165.576 225.84 167.795 225.84C169.971 225.84 171.72 226.459 173.043 227.696C174.408 228.933 175.091 230.491 175.091 232.368C175.091 234.203 174.408 235.739 173.043 236.976C171.72 238.171 169.971 238.768 167.795 238.768ZM174.003 242.096V278H161.459V242.096H174.003ZM193.691 230.64V278H181.147V230.64H193.691ZM198.786 260.016C198.786 256.304 199.447 253.061 200.77 250.288C202.135 247.515 203.991 245.381 206.338 243.888C208.685 242.395 211.287 241.648 214.146 241.648C216.45 241.648 218.498 242.139 220.29 243.12C222.125 244.059 223.554 245.36 224.578 247.024V230.64H237.186V278H224.578V273.008C223.597 274.672 222.21 275.995 220.418 276.976C218.626 277.957 216.514 278.448 214.082 278.448C211.223 278.448 208.621 277.701 206.274 276.208C203.97 274.715 202.135 272.581 200.77 269.808C199.447 266.992 198.786 263.728 198.786 260.016ZM224.642 260.016C224.642 257.712 224.002 255.899 222.722 254.576C221.485 253.253 219.949 252.592 218.114 252.592C216.237 252.592 214.679 253.253 213.442 254.576C212.205 255.856 211.586 257.669 211.586 260.016C211.586 262.32 212.205 264.155 213.442 265.52C214.679 266.843 216.237 267.504 218.114 267.504C219.949 267.504 221.485 266.843 222.722 265.52C224.002 264.197 224.642 262.363 224.642 260.016ZM265.966 278.448C261.742 278.448 257.859 277.467 254.318 275.504C250.777 273.499 247.961 270.747 245.87 267.248C243.822 263.707 242.798 259.717 242.798 255.28C242.798 250.843 243.822 246.875 245.87 243.376C247.961 239.835 250.777 237.083 254.318 235.12C257.859 233.157 261.742 232.176 265.966 232.176C270.233 232.176 274.115 233.157 277.614 235.12C281.155 237.083 283.95 239.835 285.998 243.376C288.046 246.875 289.07 250.843 289.07 255.28C289.07 259.717 288.046 263.707 285.998 267.248C283.95 270.747 281.155 273.499 277.614 275.504C274.073 277.467 270.19 278.448 265.966 278.448ZM265.966 266.8C269.166 266.8 271.683 265.755 273.518 263.664C275.395 261.573 276.334 258.779 276.334 255.28C276.334 251.696 275.395 248.88 273.518 246.832C271.683 244.741 269.166 243.696 265.966 243.696C262.723 243.696 260.185 244.741 258.35 246.832C256.515 248.88 255.598 251.696 255.598 255.28C255.598 258.821 256.515 261.637 258.35 263.728C260.185 265.776 262.723 266.8 265.966 266.8ZM331.445 242.096V278H318.837V272.88C317.77 274.501 316.298 275.824 314.421 276.848C312.544 277.829 310.389 278.32 307.957 278.32C303.776 278.32 300.469 276.955 298.037 274.224C295.648 271.451 294.453 267.696 294.453 262.96V242.096H306.933V261.36C306.933 263.408 307.466 265.029 308.533 266.224C309.642 267.376 311.093 267.952 312.885 267.952C314.72 267.952 316.17 267.376 317.237 266.224C318.304 265.029 318.837 263.408 318.837 261.36V242.096H331.445ZM359.768 267.312V278H354.328C345.155 278 340.568 273.456 340.568 264.368V252.528H336.152V242.096H340.568V233.392H353.176V242.096H359.704V252.528H353.176V264.56C353.176 265.541 353.389 266.245 353.816 266.672C354.285 267.099 355.053 267.312 356.12 267.312H359.768Z" fill="black"/>
<path d="M145.248 292.06L141.208 306H139.168L135.928 294.78L132.568 306L130.548 306.02L126.648 292.06H128.588L131.628 303.88L134.988 292.06H137.028L140.228 303.84L143.288 292.06H145.248ZM153.559 306.14C152.266 306.14 151.086 305.84 150.019 305.24C148.953 304.627 148.106 303.78 147.479 302.7C146.866 301.607 146.559 300.38 146.559 299.02C146.559 297.66 146.866 296.44 147.479 295.36C148.106 294.267 148.953 293.42 150.019 292.82C151.086 292.207 152.266 291.9 153.559 291.9C154.866 291.9 156.053 292.207 157.119 292.82C158.186 293.42 159.026 294.26 159.639 295.34C160.253 296.42 160.559 297.647 160.559 299.02C160.559 300.393 160.253 301.62 159.639 302.7C159.026 303.78 158.186 304.627 157.119 305.24C156.053 305.84 154.866 306.14 153.559 306.14ZM153.559 304.56C154.533 304.56 155.406 304.333 156.179 303.88C156.966 303.427 157.579 302.78 158.019 301.94C158.473 301.1 158.699 300.127 158.699 299.02C158.699 297.9 158.473 296.927 158.019 296.1C157.579 295.26 156.973 294.613 156.199 294.16C155.426 293.707 154.546 293.48 153.559 293.48C152.573 293.48 151.693 293.707 150.919 294.16C150.146 294.613 149.533 295.26 149.079 296.1C148.639 296.927 148.419 297.9 148.419 299.02C148.419 300.127 148.639 301.1 149.079 301.94C149.533 302.78 150.146 303.427 150.919 303.88C151.706 304.333 152.586 304.56 153.559 304.56ZM170.302 306L166.982 300.3H164.782V306H162.962V292.06H167.462C168.515 292.06 169.402 292.24 170.122 292.6C170.855 292.96 171.402 293.447 171.762 294.06C172.122 294.673 172.302 295.373 172.302 296.16C172.302 297.12 172.022 297.967 171.462 298.7C170.915 299.433 170.089 299.92 168.982 300.16L172.482 306H170.302ZM164.782 298.84H167.462C168.449 298.84 169.189 298.6 169.682 298.12C170.175 297.627 170.422 296.973 170.422 296.16C170.422 295.333 170.175 294.693 169.682 294.24C169.202 293.787 168.462 293.56 167.462 293.56H164.782V298.84ZM182.69 306L176.95 299.64V306H175.13V292.06H176.95V298.52L182.71 292.06H185.01L178.69 299.04L185.07 306H182.69ZM193.423 306.14C192.129 306.14 190.949 305.84 189.883 305.24C188.816 304.627 187.969 303.78 187.343 302.7C186.729 301.607 186.423 300.38 186.423 299.02C186.423 297.66 186.729 296.44 187.343 295.36C187.969 294.267 188.816 293.42 189.883 292.82C190.949 292.207 192.129 291.9 193.423 291.9C194.729 291.9 195.916 292.207 196.983 292.82C198.049 293.42 198.889 294.26 199.503 295.34C200.116 296.42 200.423 297.647 200.423 299.02C200.423 300.393 200.116 301.62 199.503 302.7C198.889 303.78 198.049 304.627 196.983 305.24C195.916 305.84 194.729 306.14 193.423 306.14ZM193.423 304.56C194.396 304.56 195.269 304.333 196.043 303.88C196.829 303.427 197.443 302.78 197.883 301.94C198.336 301.1 198.563 300.127 198.563 299.02C198.563 297.9 198.336 296.927 197.883 296.1C197.443 295.26 196.836 294.613 196.063 294.16C195.289 293.707 194.409 293.48 193.423 293.48C192.436 293.48 191.556 293.707 190.783 294.16C190.009 294.613 189.396 295.26 188.943 296.1C188.503 296.927 188.283 297.9 188.283 299.02C188.283 300.127 188.503 301.1 188.943 301.94C189.396 302.78 190.009 303.427 190.783 303.88C191.569 304.333 192.449 304.56 193.423 304.56ZM204.605 292.06V300.88C204.605 302.12 204.905 303.04 205.505 303.64C206.118 304.24 206.965 304.54 208.045 304.54C209.112 304.54 209.945 304.24 210.545 303.64C211.158 303.04 211.465 302.12 211.465 300.88V292.06H213.285V300.86C213.285 302.02 213.052 303 212.585 303.8C212.118 304.587 211.485 305.173 210.685 305.56C209.898 305.947 209.012 306.14 208.025 306.14C207.038 306.14 206.145 305.947 205.345 305.56C204.558 305.173 203.932 304.587 203.465 303.8C203.012 303 202.785 302.02 202.785 300.86V292.06H204.605ZM224.901 292.06V293.54H221.101V306H219.281V293.54H215.461V292.06H224.901ZM239.454 298.82C239.96 298.9 240.42 299.107 240.834 299.44C241.26 299.773 241.594 300.187 241.834 300.68C242.087 301.173 242.214 301.7 242.214 302.26C242.214 302.967 242.034 303.607 241.674 304.18C241.314 304.74 240.787 305.187 240.094 305.52C239.414 305.84 238.607 306 237.674 306H232.474V292.06H237.474C238.42 292.06 239.227 292.22 239.894 292.54C240.56 292.847 241.06 293.267 241.394 293.8C241.727 294.333 241.894 294.933 241.894 295.6C241.894 296.427 241.667 297.113 241.214 297.66C240.774 298.193 240.187 298.58 239.454 298.82ZM234.294 298.08H237.354C238.207 298.08 238.867 297.88 239.334 297.48C239.8 297.08 240.034 296.527 240.034 295.82C240.034 295.113 239.8 294.56 239.334 294.16C238.867 293.76 238.194 293.56 237.314 293.56H234.294V298.08ZM237.514 304.5C238.42 304.5 239.127 304.287 239.634 303.86C240.14 303.433 240.394 302.84 240.394 302.08C240.394 301.307 240.127 300.7 239.594 300.26C239.06 299.807 238.347 299.58 237.454 299.58H234.294V304.5H237.514ZM246.519 292.06V300.88C246.519 302.12 246.819 303.04 247.419 303.64C248.033 304.24 248.879 304.54 249.959 304.54C251.026 304.54 251.859 304.24 252.459 303.64C253.073 303.04 253.379 302.12 253.379 300.88V292.06H255.199V300.86C255.199 302.02 254.966 303 254.499 303.8C254.033 304.587 253.399 305.173 252.599 305.56C251.813 305.947 250.926 306.14 249.939 306.14C248.953 306.14 248.059 305.947 247.259 305.56C246.473 305.173 245.846 304.587 245.379 303.8C244.926 303 244.699 302.02 244.699 300.86V292.06H246.519ZM260.055 292.06V306H258.235V292.06H260.055ZM264.977 304.52H269.857V306H263.157V292.06H264.977V304.52ZM276.13 292.06C277.65 292.06 278.963 292.347 280.07 292.92C281.19 293.48 282.043 294.287 282.63 295.34C283.23 296.393 283.53 297.633 283.53 299.06C283.53 300.487 283.23 301.727 282.63 302.78C282.043 303.82 281.19 304.62 280.07 305.18C278.963 305.727 277.65 306 276.13 306H271.79V292.06H276.13ZM276.13 304.5C277.93 304.5 279.303 304.027 280.25 303.08C281.197 302.12 281.67 300.78 281.67 299.06C281.67 297.327 281.19 295.973 280.23 295C279.283 294.027 277.917 293.54 276.13 293.54H273.61V304.5H276.13ZM287.751 293.54V298.2H292.831V299.7H287.751V304.5H293.431V306H285.931V292.04H293.431V293.54H287.751ZM303.525 306L300.205 300.3H298.005V306H296.185V292.06H300.685C301.738 292.06 302.625 292.24 303.345 292.6C304.078 292.96 304.625 293.447 304.985 294.06C305.345 294.673 305.525 295.373 305.525 296.16C305.525 297.12 305.245 297.967 304.685 298.7C304.138 299.433 303.311 299.92 302.205 300.16L305.705 306H303.525ZM298.005 298.84H300.685C301.671 298.84 302.411 298.6 302.905 298.12C303.398 297.627 303.645 296.973 303.645 296.16C303.645 295.333 303.398 294.693 302.905 294.24C302.425 293.787 301.685 293.56 300.685 293.56H298.005V298.84Z" fill="black" fill-opacity="0.25"/>
<path d="M71 144C71 139.029 75.0294 135 80 135H367C371.971 135 376 139.029 376 144V144C376 148.971 371.971 153 367 153H215.115H80C75.0294 153 71 148.971 71 144V144Z" fill="#161111"/>
<rect x="118.5" y="84.5" width="22" height="115" rx="11" fill="#E5E5E5" stroke="black" stroke-width="3"/>
<rect x="155.5" y="73.5" width="22" height="138" rx="11" fill="#E5E5E5" stroke="black" stroke-width="3"/>
<path d="M327.5 97.5V190.5C327.5 196.575 322.575 201.5 316.5 201.5C310.425 201.5 305.5 196.575 305.5 190.5V97.5C305.5 91.4249 310.425 86.5 316.5 86.5C322.575 86.5 327.5 91.4249 327.5 97.5Z" fill="#E5E5E5" stroke="black" stroke-width="3"/>
<path d="M290.5 85.5V201.5C290.5 207.575 285.575 212.5 279.5 212.5C273.425 212.5 268.5 207.575 268.5 201.5V85.5C268.5 79.4249 273.425 74.5 279.5 74.5C285.575 74.5 290.5 79.4249 290.5 85.5Z" fill="#E5E5E5" stroke="black" stroke-width="3"/>
<rect x="181" y="121" width="4" height="47" fill="#C4C4C4" stroke="black" stroke-width="4"/>
<rect x="259" y="119" width="8" height="51" fill="#020202"/>
<rect x="122" y="96" width="3" height="50" rx="1.5" fill="black"/>
<rect x="321" y="142" width="3" height="50" rx="1.5" fill="black"/>
</svg>
